<?xml version="1.0" encoding="UTF-8" standalone="no"?>
<!DOCTYPE svg PUBLIC "-//W3C//DTD SVG 1.1//EN" "http://www.w3.org/Graphics/SVG/1.1/DTD/svg11.dtd">
<svg width="100%" height="100%" viewBox="0 0 85 85" version="1.1" xmlns="http://www.w3.org/2000/svg" xmlns:xlink="http://www.w3.org/1999/xlink" xml:space="preserve" xmlns:serif="http://www.serif.com/" style="fill-rule:evenodd;clip-rule:evenodd;stroke-linecap:round;stroke-linejoin:round;stroke-miterlimit:1.5;">
    <g transform="matrix(1,0,0,1,0,-1493.880162)">
        <g id="state4" transform="matrix(0.197711,0,0,0.197711,130.793892,1230.331741)">
            <rect x="-661.542" y="1333" width="425.321" height="425.321" style="fill:none;"/>
            <g transform="matrix(0.655513,0,0,0.655513,42.451531,532.12075)">
                <g transform="matrix(1.852509,0,0,1.852509,-3302.208613,-1298.226877)">
                    <path d="M1377.953,1442.258L1395.545,1469.779" style="fill:none;stroke:rgb(38,221,187);stroke-width:67.39px;"/>
                </g>
                <g transform="matrix(1.852509,0,0,1.852509,-3302.208613,-1298.226877)">
                    <path d="M1395.545,1469.779L1424.54,1454.741" style="fill:none;stroke:rgb(0,26,53);stroke-width:67.39px;"/>
                </g>
                <g transform="matrix(1.852509,0,0,1.852509,-3302.208613,-1298.226877)">
                    <path d="M1424.54,1454.741L1426.015,1487.371" style="fill:none;stroke:rgb(0,26,53);stroke-width:67.39px;"/>
                </g>
                <g transform="matrix(1.852509,0,0,1.852509,-3302.208613,-1298.226877)">
                    <path d="M1426.015,1487.371L1458.645,1488.846" style="fill:none;stroke:rgb(0,26,53);stroke-width:67.39px;"/>
                </g>
                <g transform="matrix(1.852509,0,0,1.852509,-3302.208613,-1298.226877)">
                    <path d="M1458.645,1488.846L1443.607,1517.841" style="fill:none;stroke:rgb(0,26,53);stroke-width:67.39px;"/>
                </g>
                <g transform="matrix(1.852509,0,0,1.852509,-3302.208613,-1298.226877)">
                    <path d="M1443.607,1517.841L1471.128,1535.433" style="fill:none;stroke:rgb(38,221,187);stroke-width:67.39px;"/>
                </g>
                <g transform="matrix(1.852509,0,0,1.852509,-3302.208613,-1298.226877)">
                    <path d="M1471.128,1535.433L1443.607,1553.025" style="fill:none;stroke:rgb(38,221,187);stroke-width:67.39px;"/>
                </g>
                <g transform="matrix(1.852509,0,0,1.852509,-3302.208613,-1298.226877)">
                    <path d="M1443.607,1553.025L1458.645,1582.021" style="fill:none;stroke:rgb(38,221,187);stroke-width:67.39px;"/>
                </g>
                <g transform="matrix(1.852509,0,0,1.852509,-3302.208613,-1298.226877)">
                    <path d="M1458.645,1582.021L1426.015,1583.496" style="fill:none;stroke:rgb(38,221,187);stroke-width:67.39px;"/>
                </g>
                <g transform="matrix(1.852509,0,0,1.852509,-3302.208613,-1298.226877)">
                    <path d="M1426.015,1583.496L1424.54,1616.125" style="fill:none;stroke:rgb(38,221,187);stroke-width:67.39px;"/>
                </g>
                <g transform="matrix(1.852509,0,0,1.852509,-3302.208613,-1298.226877)">
                    <path d="M1424.54,1616.125L1395.545,1601.088" style="fill:none;stroke:rgb(0,26,53);stroke-width:67.39px;"/>
                </g>
                <g transform="matrix(1.852509,0,0,1.852509,-3302.208613,-1298.226877)">
                    <path d="M1395.545,1601.088L1377.953,1628.608" style="fill:none;stroke:rgb(0,26,53);stroke-width:67.39px;"/>
                </g>
                <g transform="matrix(1.852509,0,0,1.852509,-3302.208613,-1298.226877)">
                    <path d="M1377.953,1628.608L1360.361,1601.088" style="fill:none;stroke:rgb(0,26,53);stroke-width:67.39px;"/>
                </g>
                <g transform="matrix(1.852509,0,0,1.852509,-3302.208613,-1298.226877)">
                    <path d="M1360.361,1601.088L1331.365,1616.125" style="fill:none;stroke:rgb(0,26,53);stroke-width:67.39px;"/>
                </g>
                <g transform="matrix(1.852509,0,0,1.852509,-3302.208613,-1298.226877)">
                    <path d="M1331.365,1616.125L1329.89,1583.496" style="fill:none;stroke:rgb(0,26,53);stroke-width:67.39px;"/>
                </g>
                <g transform="matrix(1.852509,0,0,1.852509,-3302.208613,-1298.226877)">
                    <path d="M1329.89,1583.496L1297.261,1582.021" style="fill:none;stroke:rgb(0,26,53);stroke-width:67.39px;"/>
                </g>
                <g transform="matrix(1.852509,0,0,1.852509,-3302.208613,-1298.226877)">
                    <path d="M1297.261,1582.021L1312.298,1553.025" style="fill:none;stroke:rgb(0,26,53);stroke-width:67.39px;"/>
                </g>
                <g transform="matrix(1.852509,0,0,1.852509,-3302.208613,-1298.226877)">
                    <path d="M1312.298,1553.025L1284.778,1535.433" style="fill:none;stroke:rgb(0,26,53);stroke-width:67.39px;"/>
                </g>
                <g transform="matrix(1.852509,0,0,1.852509,-3302.208613,-1298.226877)">
                    <path d="M1284.778,1535.433L1312.298,1517.841" style="fill:none;stroke:black;stroke-width:67.39px;"/>
                </g>
                <g transform="matrix(1.852509,0,0,1.852509,-3302.208613,-1298.226877)">
                    <path d="M1312.298,1517.841L1297.261,1488.846" style="fill:none;stroke:rgb(0,26,53);stroke-width:67.39px;"/>
                </g>
                <g transform="matrix(1.852509,0,0,1.852509,-3302.208613,-1298.226877)">
                    <path d="M1297.261,1488.846L1329.89,1487.371" style="fill:none;stroke:rgb(0,26,53);stroke-width:67.39px;"/>
                </g>
                <g transform="matrix(1.852509,0,0,1.852509,-3302.208613,-1298.226877)">
                    <path d="M1329.89,1487.371L1331.365,1454.741" style="fill:none;stroke:rgb(38,221,187);stroke-width:67.39px;"/>
                </g>
                <g transform="matrix(1.852509,0,0,1.852509,-3302.208613,-1298.226877)">
                    <path d="M1331.365,1454.741L1360.361,1469.779" style="fill:none;stroke:rgb(38,221,187);stroke-width:67.39px;"/>
                </g>
                <g transform="matrix(1.852509,0,0,1.852509,-3302.208613,-1298.226877)">
                    <path d="M1360.361,1469.779L1377.953,1442.258" style="fill:none;stroke:rgb(38,221,187);stroke-width:67.39px;"/>
                </g>
                <g transform="matrix(0.834485,0,0,0.834485,-1899.419168,264.881361)">
                    <circle cx="1377.953" cy="1328.59" r="21.728" style="fill:rgb(38,221,187);"/>
                </g>
                <g transform="matrix(0.834485,0,0,0.834485,-1866.829663,315.863238)">
                    <circle cx="1377.953" cy="1328.59" r="21.728" style="fill:rgb(38,221,187);"/>
                </g>
                <g transform="matrix(0.834485,0,0,0.834485,-1813.115385,288.00639)">
                    <circle cx="1377.953" cy="1328.59" r="21.728" style="fill:rgb(38,221,187);"/>
                </g>
                <g transform="matrix(0.834485,0,0,0.834485,-1810.382984,348.452743)">
                    <circle cx="1377.953" cy="1328.59" r="21.728" style="fill:rgb(0,26,53);"/>
                </g>
                <g transform="matrix(0.834485,0,0,0.834485,-1749.936631,351.185144)">
                    <circle cx="1377.953" cy="1328.59" r="21.728" style="fill:rgb(38,221,187);"/>
                </g>
                <g transform="matrix(0.834485,0,0,0.834485,-1777.793478,404.899422)">
                    <circle cx="1377.953" cy="1328.59" r="21.728" style="fill:rgb(0,26,53);"/>
                </g>
                <g transform="matrix(0.834485,0,0,0.834485,-1726.811602,437.488927)">
                    <circle cx="1377.953" cy="1328.59" r="21.728" style="fill:rgb(38,221,187);"/>
                </g>
                <g transform="matrix(0.834485,0,0,0.834485,-1777.793478,470.078433)">
                    <circle cx="1377.953" cy="1328.59" r="21.728" style="fill:rgb(38,221,187);"/>
                </g>
                <g transform="matrix(0.834485,0,0,0.834485,-1749.936631,523.79271)">
                    <circle cx="1377.953" cy="1328.59" r="21.728" style="fill:rgb(38,221,187);"/>
                </g>
                <g transform="matrix(0.834485,0,0,0.834485,-1810.382984,526.525112)">
                    <circle cx="1377.953" cy="1328.59" r="21.728" style="fill:rgb(0,26,53);"/>
                </g>
                <g transform="matrix(0.834485,0,0,0.834485,-1813.115385,586.971465)">
                    <circle cx="1377.953" cy="1328.59" r="21.728" style="fill:rgb(38,221,187);"/>
                </g>
                <g transform="matrix(0.834485,0,0,0.834485,-1866.829663,559.114617)">
                    <circle cx="1377.953" cy="1328.59" r="21.728" style="fill:rgb(38,221,187);"/>
                </g>
                <g transform="matrix(0.834485,0,0,0.834485,-1899.419168,610.096494)">
                    <circle cx="1377.953" cy="1328.59" r="21.728" style="fill:rgb(38,221,187);"/>
                </g>
                <g transform="matrix(0.834485,0,0,0.834485,-1932.008673,559.114617)">
                    <circle cx="1377.953" cy="1328.59" r="21.728" style="fill:rgb(38,221,187);"/>
                </g>
                <g transform="matrix(0.834485,0,0,0.834485,-1985.722951,586.971465)">
                    <circle cx="1377.953" cy="1328.59" r="21.728" style="fill:rgb(38,221,187);"/>
                </g>
                <g transform="matrix(0.834485,0,0,0.834485,-1988.455352,526.525112)">
                    <circle cx="1377.953" cy="1328.59" r="21.728" style="fill:rgb(0,26,53);"/>
                </g>
                <g transform="matrix(0.834485,0,0,0.834485,-2048.901705,523.79271)">
                    <circle cx="1377.953" cy="1328.59" r="21.728" style="fill:rgb(38,221,187);"/>
                </g>
                <g transform="matrix(0.834485,0,0,0.834485,-2021.044858,470.078433)">
                    <circle cx="1377.953" cy="1328.59" r="21.728" style="fill:rgb(0,26,53);"/>
                </g>
                <g transform="matrix(0.834485,0,0,0.834485,-2072.026734,437.488927)">
                    <circle cx="1377.953" cy="1328.59" r="21.728" style="fill:rgb(38,221,187);"/>
                </g>
                <g transform="matrix(0.834485,0,0,0.834485,-2021.044858,404.899422)">
                    <circle cx="1377.953" cy="1328.59" r="21.728" style="fill:rgb(38,221,187);"/>
                </g>
                <g transform="matrix(0.834485,0,0,0.834485,-2048.901705,351.185144)">
                    <circle cx="1377.953" cy="1328.59" r="21.728" style="fill:rgb(38,221,187);"/>
                </g>
                <g transform="matrix(0.834485,0,0,0.834485,-1988.455352,348.452743)">
                    <circle cx="1377.953" cy="1328.59" r="21.728" style="fill:rgb(0,26,53);"/>
                </g>
                <g transform="matrix(0.834485,0,0,0.834485,-1985.722951,288.00639)">
                    <circle cx="1377.953" cy="1328.59" r="21.728" style="fill:rgb(38,221,187);"/>
                </g>
                <g transform="matrix(0.834485,0,0,0.834485,-1932.008673,315.863238)">
                    <circle cx="1377.953" cy="1328.59" r="21.728" style="fill:rgb(38,221,187);"/>
                </g>
            </g>
        </g>
    </g>
</svg>
